<?xml version="1.0" encoding="UTF-8" standalone="no"?>
<!-- Created with Inkscape (http://www.inkscape.org/) -->

<svg
   xmlns:dc="http://purl.org/dc/elements/1.1/"
   xmlns:cc="http://creativecommons.org/ns#"
   xmlns:rdf="http://www.w3.org/1999/02/22-rdf-syntax-ns#"
   xmlns:svg="http://www.w3.org/2000/svg"
   xmlns="http://www.w3.org/2000/svg"
   xmlns:sodipodi="http://sodipodi.sourceforge.net/DTD/sodipodi-0.dtd"
   xmlns:inkscape="http://www.inkscape.org/namespaces/inkscape"
   width="63.956444mm"
   height="25.949333mm"
   viewBox="0 0 63.956443 25.949333"
   version="1.1"
   id="svg8"
   inkscape:version="0.92.4 5da689c313, 2019-01-14"
   sodipodi:docname="moder-ts-logo.svg">
  <defs
     id="defs2" />
  <sodipodi:namedview
     id="base"
     pagecolor="#ffffff"
     bordercolor="#666666"
     borderopacity="1.0"
     inkscape:pageopacity="0.0"
     inkscape:pageshadow="2"
     inkscape:zoom="1"
     inkscape:cx="-19.011925"
     inkscape:cy="26.299966"
     inkscape:document-units="mm"
     inkscape:current-layer="layer1"
     showgrid="false"
     fit-margin-top="5"
     fit-margin-left="5"
     fit-margin-right="5"
     fit-margin-bottom="5"
     inkscape:window-width="1366"
     inkscape:window-height="713"
     inkscape:window-x="0"
     inkscape:window-y="27"
     inkscape:window-maximized="1" />
  <metadata
     id="metadata5">
    <rdf:RDF>
      <cc:Work
         rdf:about="">
        <dc:format>image/svg+xml</dc:format>
        <dc:type
           rdf:resource="http://purl.org/dc/dcmitype/StillImage" />
        <dc:title></dc:title>
      </cc:Work>
    </rdf:RDF>
  </metadata>
  <g
     inkscape:label="Camada 1"
     inkscape:groupmode="layer"
     id="layer1"
     transform="translate(-58.127928,-130.00092)">
    <path
       style="opacity:1;fill:#0077c6;fill-opacity:1;stroke:none;stroke-width:1.27560163;stroke-linecap:round;stroke-linejoin:round;stroke-miterlimit:4;stroke-dasharray:none;stroke-opacity:1"
       d="m 99.018372,135.00092 h 18.065998 v 15.94933 H 99.018372 Z"
       id="rect823" />
    <g
       aria-label="Modern"
       style="font-style:normal;font-weight:normal;font-size:10.58333302px;line-height:1.25;font-family:sans-serif;letter-spacing:0px;word-spacing:0px;fill:#000000;fill-opacity:1;stroke:none;stroke-width:0.26458332"
       id="text817">
      <path
         d="m 63.970254,139.47191 2.775025,6.64043 2.785359,-6.64043 h 0.847494 v 7.52409 h -0.63562 v -3.27628 l 0.05168,-3.35897 -2.800863,6.63525 h -0.490926 l -2.790527,-6.60941 0.05168,3.31246 v 3.29695 h -0.63562 v -7.52409 z"
         style="font-style:normal;font-variant:normal;font-weight:300;font-stretch:normal;font-family:Roboto;-inkscape-font-specification:'Roboto Light';stroke-width:0.26458332"
         id="path847" />
      <path
         d="m 71.799233,144.11763 q 0,-0.80616 0.310059,-1.45211 0.315226,-0.64596 0.883667,-1.00253 0.573608,-0.36173 1.297078,-0.36173 1.116211,0 1.808675,0.78548 0.692465,0.78032 0.692465,2.07223 v 0.12919 q 0,0.81132 -0.315227,1.46244 -0.310058,0.64596 -0.878499,0.99736 -0.568441,0.3514 -1.297078,0.3514 -1.111044,0 -1.808675,-0.78032 -0.692465,-0.78548 -0.692465,-2.07739 z m 0.620118,0.17053 q 0,1.00252 0.516764,1.64848 0.521932,0.64078 1.364258,0.64078 0.837158,0 1.353922,-0.64078 0.521932,-0.64596 0.521932,-1.70016 v -0.11885 q 0,-0.64079 -0.237711,-1.17306 -0.237712,-0.53227 -0.666626,-0.82166 -0.428915,-0.29455 -0.981853,-0.29455 -0.826823,0 -1.348754,0.65112 -0.521932,0.64596 -0.521932,1.69499 z"
         style="font-style:normal;font-variant:normal;font-weight:300;font-stretch:normal;font-family:Roboto;-inkscape-font-specification:'Roboto Light';stroke-width:0.26458332"
         id="path849" />
      <path
         d="m 77.819538,144.14863 q 0,-1.30225 0.578776,-2.07222 0.583944,-0.77515 1.581299,-0.77515 1.131714,0 1.725993,0.894 v -3.13676 h 0.614949 v 7.9375 h -0.578776 l -0.02584,-0.74414 q -0.594279,0.8475 -1.746663,0.8475 -0.96635,0 -1.560629,-0.77515 -0.589111,-0.78032 -0.589111,-2.10323 z m 0.625285,0.10852 q 0,1.0697 0.428914,1.68982 0.428915,0.61495 1.209229,0.61495 1.142049,0 1.62264,-1.00769 v -2.62516 q -0.480591,-1.09038 -1.612305,-1.09038 -0.780314,0 -1.214396,0.61495 -0.434082,0.60979 -0.434082,1.80351 z"
         style="font-style:normal;font-variant:normal;font-weight:300;font-stretch:normal;font-family:Roboto;-inkscape-font-specification:'Roboto Light';stroke-width:0.26458332"
         id="path851" />
      <path
         d="m 86.113605,147.09936 q -0.713135,0 -1.291911,-0.3514 -0.573608,-0.3514 -0.894002,-0.97669 -0.320394,-0.63045 -0.320394,-1.41077 v -0.2222 q 0,-0.80616 0.310058,-1.45211 0.315227,-0.64596 0.873332,-1.01286 0.558106,-0.37207 1.209229,-0.37207 1.018025,0 1.612304,0.69763 0.599447,0.69247 0.599447,1.89653 v 0.34623 h -3.989421 v 0.11885 q 0,0.95085 0.542603,1.58647 0.54777,0.63045 1.374593,0.63045 0.496094,0 0.873332,-0.18086 0.382405,-0.18087 0.692464,-0.57878 l 0.387573,0.29456 q -0.682129,0.98702 -1.979207,0.98702 z m -0.113688,-5.271 q -0.697632,0 -1.178223,0.5116 -0.475423,0.51159 -0.578776,1.37459 h 3.3538 v -0.0672 q -0.02584,-0.80615 -0.45992,-1.31258 -0.434082,-0.50643 -1.136881,-0.50643 z"
         style="font-style:normal;font-variant:normal;font-weight:300;font-stretch:normal;font-family:Roboto;-inkscape-font-specification:'Roboto Light';stroke-width:0.26458332"
         id="path853" />
      <path
         d="m 91.999551,141.93171 q -0.19637,-0.0362 -0.418579,-0.0362 -0.578776,0 -0.981852,0.32556 -0.397909,0.32039 -0.568441,0.93534 v 3.83956 h -0.61495 v -5.59139 h 0.604615 l 0.01034,0.88884 q 0.490926,-0.99219 1.576131,-0.99219 0.258382,0 0.408244,0.0672 z"
         style="font-style:normal;font-variant:normal;font-weight:300;font-stretch:normal;font-family:Roboto;-inkscape-font-specification:'Roboto Light';stroke-width:0.26458332"
         id="path855" />
      <path
         d="m 93.565346,141.40461 0.02067,0.95602 q 0.315227,-0.51677 0.785482,-0.78549 0.470256,-0.27388 1.038696,-0.27388 0.89917,0 1.33842,0.50643 0.43925,0.50643 0.444417,1.51929 v 3.66902 h -0.614949 v -3.67419 q -0.0052,-0.74931 -0.320394,-1.11621 -0.310059,-0.36691 -0.997355,-0.36691 -0.573609,0 -1.018026,0.36174 -0.43925,0.35657 -0.651123,0.96635 v 3.82922 h -0.61495 v -5.59139 z"
         style="font-style:normal;font-variant:normal;font-weight:300;font-stretch:normal;font-family:Roboto;-inkscape-font-specification:'Roboto Light';stroke-width:0.26458332"
         id="path857" />
    </g>
    <g
       aria-label="TS"
       style="font-style:normal;font-weight:normal;font-size:10.58333302px;line-height:1.25;font-family:sans-serif;letter-spacing:0px;word-spacing:0px;fill:#ffffff;fill-opacity:1;stroke:none;stroke-width:0.26458332"
       id="text821">
      <path
         d="m 107.67093,140.72765 h -2.30476 v 6.26835 h -1.5503 v -6.26835 h -2.27376 v -1.25574 h 6.12882 z"
         style="font-style:normal;font-variant:normal;font-weight:bold;font-stretch:normal;font-family:Roboto;-inkscape-font-specification:'Roboto weight=250';fill:#ffffff;stroke-width:0.26458332"
         id="path860" />
      <path
         d="m 112.37349,145.02196 q 0,-0.43925 -0.31006,-0.67179 -0.31006,-0.23771 -1.11621,-0.49609 -0.80615,-0.26355 -1.27641,-0.51677 -1.28157,-0.69246 -1.28157,-1.86552 0,-0.60978 0.34106,-1.0852 0.34623,-0.48059 0.98702,-0.74931 0.64596,-0.26872 1.44694,-0.26872 0.80615,0 1.43661,0.29456 0.63045,0.28938 0.97668,0.82165 0.3514,0.53227 0.3514,1.20923 h -1.55029 q 0,-0.51676 -0.32556,-0.80098 -0.32557,-0.28939 -0.91468,-0.28939 -0.56844,0 -0.88366,0.24288 -0.31523,0.23771 -0.31523,0.63045 0,0.3669 0.3669,0.61495 0.37207,0.24805 1.09037,0.46509 1.32292,0.39791 1.92754,0.98702 0.60461,0.58911 0.60461,1.46761 0,0.97668 -0.73897,1.53479 -0.73898,0.55294 -1.98955,0.55294 -0.86816,0 -1.58129,-0.31523 -0.71314,-0.3204 -1.09038,-0.87333 -0.37207,-0.55294 -0.37207,-1.28158 h 1.55546 q 0,1.2454 1.48828,1.2454 0.55294,0 0.863,-0.22221 0.31006,-0.22737 0.31006,-0.63045 z"
         style="font-style:normal;font-variant:normal;font-weight:bold;font-stretch:normal;font-family:Roboto;-inkscape-font-specification:'Roboto weight=250';fill:#ffffff;stroke-width:0.26458332"
         id="path862" />
    </g>
  </g>
</svg>
